<svg width="251" height="251" viewBox="0 0 251 251" fill="none" xmlns="http://www.w3.org/2000/svg">
<rect width="251" height="251" rx="64" fill="#111928"/>
<path d="M190.316 71.4355H146.834C141.068 71.4356 135.538 73.7262 131.461 77.8034C127.383 81.8806 125.093 87.4105 125.093 93.1766C125.093 90.3215 124.531 87.4944 123.438 84.8566C122.345 82.2189 120.744 79.8222 118.725 77.8033C116.706 75.7845 114.31 74.183 111.672 73.0905C109.034 71.9979 106.207 71.4355 103.352 71.4355H59.8698C59.1561 71.4355 58.4493 71.5761 57.7898 71.8493C57.1304 72.1224 56.5312 72.5228 56.0265 73.0275C55.5218 73.5322 55.1214 74.1314 54.8483 74.7908C54.5751 75.4502 54.4346 76.157 54.4346 76.8708V163.835C54.4346 164.549 54.5751 165.255 54.8483 165.915C55.1214 166.574 55.5218 167.173 56.0265 167.678C56.5312 168.183 57.1304 168.583 57.7898 168.856C58.4493 169.129 59.1561 169.27 59.8698 169.27H103.352C106.207 169.27 109.034 169.832 111.672 170.925C114.31 172.018 116.706 173.619 118.725 175.638C120.744 177.657 122.345 180.053 123.438 182.691C124.531 185.329 125.093 188.156 125.093 191.011C125.093 185.245 127.383 179.715 131.461 175.638C135.538 171.561 141.068 169.27 146.834 169.27H190.316C191.03 169.27 191.736 169.129 192.396 168.856C193.055 168.583 193.654 168.183 194.159 167.678C194.664 167.173 195.064 166.574 195.337 165.915C195.611 165.255 195.751 164.549 195.751 163.835V76.8708C195.751 76.157 195.611 75.4502 195.337 74.7908C195.064 74.1314 194.664 73.5322 194.159 73.0275C193.654 72.5228 193.055 72.1224 192.396 71.8493C191.736 71.5761 191.03 71.4355 190.316 71.4355Z" fill="#AFECEF"/>
<path d="M190.317 66H146.835C142.614 66.0003 138.451 66.9846 134.677 68.8749C130.903 70.7652 127.622 73.5093 125.094 76.8894C122.565 73.5093 119.284 70.7652 115.51 68.8749C111.736 66.9846 107.573 66.0003 103.353 66H59.8705C56.9885 66.0033 54.2254 67.1496 52.1875 69.1875C50.1496 71.2254 49.0033 73.9885 49 76.8705V163.835C49.0033 166.717 50.1496 169.48 52.1875 171.517C54.2254 173.555 56.9885 174.702 59.8705 174.705H103.353C107.676 174.71 111.82 176.429 114.877 179.486C117.934 182.543 119.653 186.688 119.658 191.011C119.658 192.452 120.231 193.835 121.25 194.854C122.27 195.873 123.652 196.446 125.094 196.446C126.535 196.446 127.918 195.873 128.937 194.854C129.956 193.835 130.529 192.452 130.529 191.011C130.534 186.688 132.253 182.543 135.31 179.486C138.367 176.429 142.511 174.71 146.835 174.705H190.317C193.199 174.702 195.962 173.555 198 171.517C200.037 169.48 201.184 166.717 201.187 163.835V76.8705C201.184 73.9885 200.037 71.2254 198 69.1875C195.962 67.1496 193.199 66.0033 190.317 66ZM103.353 163.835L59.8708 163.841L59.8705 163.835V76.8705H103.353C107.676 76.8754 111.82 78.595 114.877 81.6518C117.934 84.7087 119.653 88.8532 119.658 93.1763V169.282C114.96 165.741 109.236 163.828 103.353 163.835ZM190.317 163.835H146.835C140.951 163.828 135.226 165.742 130.529 169.285V93.1763C130.534 88.8532 132.253 84.7087 135.31 81.6518C138.367 78.595 142.511 76.8754 146.835 76.8705H190.317V163.835Z" fill="#0694A2"/>
</svg>
